<?xml version="1.0" encoding="utf-8"?>
<!-- Generator: Adobe Illustrator 18.0.0, SVG Export Plug-In . SVG Version: 6.00 Build 0)  -->
<!DOCTYPE svg PUBLIC "-//W3C//DTD SVG 1.1//EN" "http://www.w3.org/Graphics/SVG/1.1/DTD/svg11.dtd">
<svg version="1.1" id="Ebene_1" xmlns="http://www.w3.org/2000/svg" xmlns:xlink="http://www.w3.org/1999/xlink" x="0px" y="0px"
	 viewBox="0 0 435.5 128.4" style="enable-background:new 0 0 435.5 128.4;" xml:space="preserve">
<g>
	<path d="M4.4,108.9C1.5,105.3,0,102,0,99.1c0-2.9,2.4-6.7,7.3-11.4c2.8-2.7,5.8-4.1,9-4.1c3.2,0,7.6,2.8,13.2,8.5
		c1.6,1.9,3.8,3.8,6.8,5.5c2.9,1.8,5.7,2.6,8.1,2.6c10.5,0,15.8-4.3,15.8-12.9c0-2.6-1.4-4.8-4.3-6.5c-2.9-1.8-6.5-3-10.8-3.8
		c-4.3-0.8-8.9-2.1-13.9-3.8c-5-1.8-9.6-3.8-13.9-6.2C13,64.6,9.4,60.9,6.5,55.7c-2.9-5.1-4.3-11.3-4.3-18.6c0-9.9,3.7-18.6,11.1-26
		C20.7,3.7,30.8,0,43.6,0c6.8,0,13,0.9,18.6,2.6c5.6,1.8,9.5,3.5,11.6,5.3l4.2,3.2c3.5,3.3,5.3,6.1,5.3,8.3c0,2.3-1.4,5.4-4.1,9.3
		c-3.8,5.7-7.8,8.5-11.9,8.5c-2.4,0-5.3-1.1-8.8-3.4c-0.3-0.2-1-0.8-2-1.7c-1-0.9-1.8-1.6-2.6-2.2c-2.4-1.5-5.4-2.2-9.1-2.2
		c-3.7,0-6.7,0.9-9.2,2.6c-2.4,1.8-3.6,4.2-3.6,7.3c0,3.1,1.4,5.6,4.3,7.5c2.9,1.9,6.5,3.2,10.8,3.9c4.3,0.7,9,1.7,14.1,3.1
		c5.1,1.4,9.8,3.1,14.1,5.2c4.3,2,7.9,5.6,10.8,10.6c2.9,5,4.3,11.2,4.3,18.6c0,7.4-1.5,13.8-4.4,19.4c-2.9,5.6-6.8,9.9-11.5,13
		c-9.2,6-18.9,9-29.3,9c-5.3,0-10.3-0.7-15.1-2c-4.7-1.3-8.6-2.9-11.5-4.8c-6-3.6-10.2-7.1-12.6-10.5L4.4,108.9z"/>
	<path d="M127.4,96.3h52.2c2.6,0,4.6,0.1,5.9,0.3c1.3,0.2,2.8,0.7,4.5,1.6c3.1,1.6,4.6,6,4.6,13.2c0,7.9-2.1,12.6-6.3,13.9
		c-1.9,0.7-4.9,1-8.8,1h-67.2c-7.9,0-12.6-2.1-13.9-6.4c-0.7-1.8-1-4.7-1-8.7V17c0-5.8,1.1-9.7,3.2-11.8c2.1-2.1,6.2-3.1,12.2-3.1
		h66.8c2.6,0,4.6,0.1,5.9,0.3c1.3,0.2,2.8,0.7,4.5,1.6c3.1,1.6,4.6,6,4.6,13.2c0,7.9-2.1,12.6-6.3,13.9c-1.9,0.7-4.9,1-8.8,1h-52.1
		v17.1H161c2.6,0,4.5,0.1,5.9,0.3c1.3,0.2,2.8,0.7,4.5,1.6c3.1,1.6,4.6,6,4.6,13.2c0,7.9-2.2,12.6-6.4,13.9c-1.9,0.7-4.9,1-8.8,1
		h-33.2V96.3z"/>
	<path d="M312.8,92.6c5.2,3.5,8.9,6.1,11.2,7.6c4.1,3.1,6.1,6,6.1,8.7c0,2.8-1.7,6.6-5.1,11.6c-3.4,5-6.8,7.5-10.3,7.5
		c-2.1,0-5.4-1.5-9.8-4.6c-0.6-0.3-2.1-1.4-4.8-3.2c-2.6-1.8-4.6-3.2-6.1-4.1c-10.5,8.1-22.3,12.2-35.4,12.2
		c-17.5,0-32.3-6.2-44.4-18.7c-12-12.4-18.1-27.2-18.1-44.4c0-9.4,1.7-18.2,5.1-26.4c3.4-8.2,7.9-15.1,13.6-20.6
		c5.7-5.5,12.2-9.9,19.5-13.1c7.3-3.2,14.9-4.7,22.7-4.7c16.7,0,31.3,6.1,43.6,18.1c12.3,12.1,18.5,27.4,18.5,46
		C319.1,74,317,83.3,312.8,92.6z M226.1,64.5c0,10.1,3.2,18.2,9.8,24.5c6.5,6.3,13.8,9.4,21.8,9.4c8,0,15.3-3.1,21.7-9.2
		c6.4-6.1,9.7-14.3,9.7-24.6c0-10.3-3.3-18.5-9.8-24.8c-6.5-6.2-13.8-9.3-21.8-9.3c-8,0-15.3,3.1-21.7,9.4S226.1,54.4,226.1,64.5z"
		/>
	<path d="M420.7,97.4c4.4,0,7.6,0.5,9.6,1.6c2,1.1,3.3,2.6,4.1,4.7c0.7,2,1.1,4.6,1.1,7.8c0,3.2-0.3,5.7-0.8,7.6
		c-0.6,1.9-1.2,3.4-2,4.4c-0.8,1-2,1.8-3.6,2.2c-1.8,0.7-4.7,1-8.7,1h-70.6c-2.6,0-5.1-0.7-7.5-2c-5-2.8-7.5-7.3-7.5-13.4
		c0-2.9,0.7-5.3,2-7.1l52.6-72.8h-39c-2.7,0-4.7-0.1-6-0.3c-1.3-0.2-2.9-0.6-4.7-1.4c-3.3-1.6-4.9-5.8-4.9-12.7
		c0-7.2,1.5-11.6,4.6-13.2c1.7-0.9,3.2-1.4,4.5-1.6c1.3-0.2,3.3-0.3,6-0.3h68.2c2.6,0,5.1,0.7,7.5,2s4.2,3.2,5.5,5.4
		c1.3,2.3,2,4.9,2,8c0,3.1-0.7,5.5-2,7.3l-52.6,72.8H420.7z"/>
</g>
<g>
	<path d="M4.4,318.9C1.5,315.3,0,312,0,309.1c0-2.9,2.4-6.7,7.3-11.4c2.8-2.7,5.8-4.1,9-4.1c3.2,0,7.6,2.8,13.2,8.5
		c1.6,1.9,3.8,3.8,6.8,5.5c2.9,1.8,5.7,2.6,8.1,2.6c10.5,0,15.8-4.3,15.8-12.9c0-2.6-1.4-4.8-4.3-6.5c-2.9-1.8-6.5-3-10.8-3.8
		c-4.3-0.8-8.9-2.1-13.9-3.8c-5-1.8-9.6-3.8-13.9-6.2c-4.3-2.4-7.9-6.1-10.8-11.3c-2.9-5.1-4.3-11.3-4.3-18.6
		c0-9.9,3.7-18.6,11.1-26c7.4-7.4,17.5-11.1,30.3-11.1c6.8,0,13,0.9,18.6,2.6c5.6,1.8,9.5,3.5,11.6,5.3l4.2,3.2
		c3.5,3.3,5.3,6.1,5.3,8.3c0,2.3-1.4,5.4-4.1,9.3c-3.8,5.7-7.8,8.5-11.9,8.5c-2.4,0-5.3-1.1-8.8-3.4c-0.3-0.2-1-0.8-2-1.7
		c-1-0.9-1.8-1.6-2.6-2.2c-2.4-1.5-5.4-2.2-9.1-2.2c-3.7,0-6.7,0.9-9.2,2.6c-2.4,1.8-3.6,4.2-3.6,7.3c0,3.1,1.4,5.6,4.3,7.5
		c2.9,1.9,6.5,3.2,10.8,3.9c4.3,0.7,9,1.7,14.1,3.1c5.1,1.4,9.8,3.1,14.1,5.2c4.3,2,7.9,5.6,10.8,10.6c2.9,5,4.3,11.2,4.3,18.6
		c0,7.4-1.5,13.8-4.4,19.4c-2.9,5.6-6.8,9.9-11.5,13c-9.2,6-18.9,9-29.3,9c-5.3,0-10.3-0.7-15.1-2c-4.7-1.3-8.6-2.9-11.5-4.8
		c-6-3.6-10.2-7.1-12.6-10.5L4.4,318.9z"/>
	<path d="M127.4,306.3h52.2c2.6,0,4.6,0.1,5.9,0.3c1.3,0.2,2.8,0.7,4.5,1.6c3.1,1.6,4.6,6,4.6,13.2c0,7.9-2.1,12.6-6.3,13.9
		c-1.9,0.7-4.9,1-8.8,1h-67.2c-7.9,0-12.6-2.1-13.9-6.4c-0.7-1.8-1-4.7-1-8.7V227c0-5.8,1.1-9.7,3.2-11.8c2.1-2.1,6.2-3.1,12.2-3.1
		h66.8c2.6,0,4.6,0.1,5.9,0.3c1.3,0.2,2.8,0.7,4.5,1.6c3.1,1.6,4.6,6,4.6,13.2c0,7.9-2.1,12.6-6.3,13.9c-1.9,0.7-4.9,1-8.8,1h-52.1
		v17.1H161c2.6,0,4.5,0.1,5.9,0.3c1.3,0.2,2.8,0.7,4.5,1.6c3.1,1.6,4.6,6,4.6,13.2c0,7.9-2.2,12.6-6.4,13.9c-1.9,0.7-4.9,1-8.8,1
		h-33.2V306.3z"/>
	<path d="M312.8,302.6c5.2,3.5,8.9,6.1,11.2,7.6c4.1,3.1,6.1,6,6.1,8.7c0,2.8-1.7,6.6-5.1,11.6c-3.4,5-6.8,7.5-10.3,7.5
		c-2.1,0-5.4-1.5-9.8-4.6c-0.6-0.3-2.1-1.4-4.8-3.2c-2.6-1.8-4.6-3.2-6.1-4.1c-10.5,8.1-22.3,12.2-35.4,12.2
		c-17.5,0-32.3-6.2-44.4-18.7c-12-12.4-18.1-27.2-18.1-44.4c0-9.4,1.7-18.2,5.1-26.4c3.4-8.2,7.9-15.1,13.6-20.6
		c5.7-5.5,12.2-9.9,19.5-13.1c7.3-3.2,14.9-4.7,22.7-4.7c16.7,0,31.3,6.1,43.6,18.1c12.3,12.1,18.5,27.4,18.5,46
		C319.1,284,317,293.3,312.8,302.6z M226.1,274.5c0,10.1,3.2,18.2,9.8,24.5c6.5,6.3,13.8,9.4,21.8,9.4c8,0,15.3-3.1,21.7-9.2
		c6.4-6.1,9.7-14.3,9.7-24.6c0-10.3-3.3-18.5-9.8-24.8c-6.5-6.2-13.8-9.3-21.8-9.3c-8,0-15.3,3.1-21.7,9.4S226.1,264.4,226.1,274.5z
		"/>
	<path d="M420.7,307.4c4.4,0,7.6,0.5,9.6,1.6c2,1.1,3.3,2.6,4.1,4.7c0.7,2,1.1,4.6,1.1,7.8c0,3.2-0.3,5.7-0.8,7.6
		c-0.6,1.9-1.2,3.4-2,4.4c-0.8,1-2,1.8-3.6,2.2c-1.8,0.7-4.7,1-8.7,1h-70.6c-2.6,0-5.1-0.7-7.5-2c-5-2.8-7.5-7.3-7.5-13.4
		c0-2.9,0.7-5.3,2-7.1l52.6-72.8h-39c-2.7,0-4.7-0.1-6-0.3c-1.3-0.2-2.9-0.6-4.7-1.4c-3.3-1.6-4.9-5.8-4.9-12.7
		c0-7.2,1.5-11.6,4.6-13.2c1.7-0.9,3.2-1.4,4.5-1.6c1.3-0.2,3.3-0.3,6-0.3h68.2c2.6,0,5.1,0.7,7.5,2s4.2,3.2,5.5,5.4
		c1.3,2.3,2,4.9,2,8c0,3.1-0.7,5.5-2,7.3l-52.6,72.8H420.7z"/>
	<path d="M448.2,310.5c1.1-2.2,2.9-3.7,5.2-4.5c2.3-0.8,5.9-1.2,10.9-1.2c4.9,0,8.5,1.1,10.7,3.2c2.2,2.1,3.3,5.5,3.3,10.2v2.7
		c0,2.7-0.1,4.7-0.3,6c-0.2,1.3-0.7,2.9-1.6,4.7c-1.8,3.3-6.1,4.9-13,4.9c-6.8,0-11.4-1.1-13.6-3.3s-3.3-6.5-3.3-12.8
		C446.5,316,447,312.7,448.2,310.5z M470.9,290.7c-2.1,0.6-5,0.8-8.7,0.8c-3.6,0-6.5-0.3-8.7-0.8c-2.1-0.6-3.6-1.6-4.5-3.1
		c-0.8-1.5-1.4-2.8-1.5-3.9c-0.2-1.1-0.3-2.9-0.3-5.3v-53.8c0-2.4,0.1-4.2,0.3-5.3c0.2-1.2,0.7-2.5,1.6-4c0.9-1.5,2.4-2.5,4.6-3.1
		c2.1-0.6,5-0.9,8.7-0.9c3.6,0,6.5,0.3,8.7,0.9c2.1,0.6,3.6,1.7,4.5,3.2c0.8,1.5,1.4,2.9,1.5,4.1c0.2,1.2,0.3,3,0.3,5.3v53.8
		c0,2.4-0.1,4.1-0.3,5.3c-0.2,1.1-0.7,2.4-1.6,3.8C474.6,289.2,473,290.2,470.9,290.7z"/>
</g>
</svg>
